<svg xmlns="http://www.w3.org/2000/svg" version="1.1" xmlns:xlink="http://www.w3.org/1999/xlink" xmlns:svgjs="http://svgjs.dev/svgjs" width="2000" height="1247" viewBox="0 0 2000 1247"><g transform="matrix(1,0,0,1,-1.2121212121212466,0.504858299595071)"><svg viewBox="0 0 396 247" data-background-color="#ffffff" preserveAspectRatio="xMidYMid meet" height="1247" width="2000" xmlns="http://www.w3.org/2000/svg" xmlns:xlink="http://www.w3.org/1999/xlink"><g id="tight-bounds" transform="matrix(1,0,0,1,0.2400000000000091,-0.09999999999999432)"><svg viewBox="0 0 395.52 247.2" height="247.2" width="395.52"><g><svg></svg></g><g><svg viewBox="0 0 395.52 247.2" height="247.2" width="395.52"><g><path d="M55.039 247.2l26.403-45.732 2.097 0-25.298 43.817h279.038l-25.298-43.817 2.097 0 26.403 45.732zM197.76 0l26.403 45.732-2.096 0-24.307-42.101-24.307 42.101-2.096 0z" fill="#7a26c1" fill-rule="nonzero" stroke="none" stroke-width="1" stroke-linecap="butt" stroke-linejoin="miter" stroke-miterlimit="10" stroke-dasharray="" stroke-dashoffset="0" font-family="none" font-weight="none" font-size="none" text-anchor="none" style="mix-blend-mode: normal" data-fill-palette-color="tertiary"></path></g><g transform="matrix(1,0,0,1,24.704063045019126,67.97999999999999)"><svg viewBox="0 0 346.11187390996173 111.24" height="111.24" width="346.11187390996173"><g><svg viewBox="0 0 631.6470411136862 203.01070882001926" height="111.24" width="346.11187390996173"><g transform="matrix(1,0,0,1,236.12704111368626,73.44970089701637)"><svg viewBox="0 0 395.52 56.11130702598653" height="56.11130702598653" width="395.52"><g id="textblocktransform"><svg viewBox="0 0 395.52 56.11130702598653" height="56.11130702598653" width="395.52" id="textblock"><g><svg viewBox="0 0 395.52 56.11130702598653" height="56.11130702598653" width="395.52"><g transform="matrix(1,0,0,1,0,0)"><svg width="395.52" viewBox="0.25 -36.25 259.74 36.85" height="56.11130702598653" data-palette-color="#7a26c1"><path d="M41.7 0L29.55 0 25.1-20.95 24.9-20.95 20.45 0 8.3 0 0.25-34.4 11.75-34.4 15.7-14.9 15.9-14.9 19.8-34.4 30.7-34.4 34.85-14.9 35.05-14.9 38.75-34.4 49.75-34.4 41.7 0ZM65.35-27Q72.6-27 76.42-23.6 80.25-20.2 80.25-13.2L80.25-13.2 80.25-11.5 60.45-11.5Q60.45-8.65 61.72-7.2 63-5.75 65.75-5.75L65.75-5.75Q68.25-5.75 69.42-6.8 70.6-7.85 70.6-9.6L70.6-9.6 80.25-9.6Q80.25-4.8 76.6-2.1 72.95 0.6 65.95 0.6L65.95 0.6Q58.6 0.6 54.55-2.83 50.5-6.25 50.5-13.2L50.5-13.2Q50.5-20 54.45-23.5 58.4-27 65.35-27L65.35-27ZM65.75-20.65Q61.05-20.65 60.5-16.2L60.5-16.2 70.2-16.2Q70.2-18.25 69.02-19.45 67.85-20.65 65.75-20.65L65.75-20.65ZM94.55-23.95Q97.4-27 101.95-27L101.95-27Q107.3-27 110.2-23.53 113.1-20.05 113.1-13.25L113.1-13.25Q113.1-6.4 110.2-2.9 107.3 0.6 101.95 0.6L101.95 0.6Q96.45 0.6 93.55-3.75L93.55-3.75 92.7 0 84.6 0 84.6-36.25 94.55-36.25 94.55-23.95ZM98.85-19.65Q96.65-19.65 95.55-18.07 94.45-16.5 94.45-14L94.45-14 94.45-12.35Q94.45-9.85 95.55-8.3 96.65-6.75 98.85-6.75L98.85-6.75Q103.15-6.75 103.15-11.85L103.15-11.85 103.15-14.5Q103.15-19.65 98.85-19.65L98.85-19.65ZM135.89-35Q140.84-35 144.79-33.5 148.74-32 151.07-29.08 153.39-26.15 153.39-21.95L153.39-21.95 142.84-21.95Q142.84-24.1 140.94-25.43 139.04-26.75 136.34-26.75L136.34-26.75Q132.44-26.75 130.44-24.68 128.44-22.6 128.44-18.8L128.44-18.8 128.44-15.6Q128.44-11.8 130.44-9.73 132.44-7.65 136.34-7.65L136.34-7.65Q139.04-7.65 140.94-8.93 142.84-10.2 142.84-12.2L142.84-12.2 135.04-12.2 135.04-19.2 153.39-19.2 153.39 0 147.69 0 146.59-3.4Q141.89 0.6 134.29 0.6L134.29 0.6Q125.74 0.6 121.44-3.88 117.14-8.35 117.14-17.2L117.14-17.2Q117.14-25.95 122.02-30.48 126.89-35 135.89-35L135.89-35ZM175.59-27.05Q176.74-27.05 177.64-26.78 178.54-26.5 178.54-26.45L178.54-26.45 178.54-18.1 175.34-18.1Q172.24-18.1 170.87-16.5 169.49-14.9 169.49-11.75L169.49-11.75 169.49 0 159.54 0 159.54-26.4 167.69-26.4 168.34-22.4Q169.24-24.7 171.19-25.88 173.14-27.05 175.59-27.05L175.59-27.05ZM195.64-27Q201.69-27 205.49-24.98 209.29-22.95 209.29-18.4L209.29-18.4 209.29-8.1Q209.29-7.25 209.69-6.7 210.09-6.15 210.89-6.15L210.89-6.15 212.69-6.15 212.69-0.4Q212.54-0.3 211.91-0.08 211.29 0.15 210.14 0.38 208.99 0.6 207.49 0.6L207.49 0.6Q204.59 0.6 202.71-0.28 200.84-1.15 200.14-2.7L200.14-2.7Q198.24-1.2 195.89-0.3 193.54 0.6 190.39 0.6L190.39 0.6Q181.09 0.6 181.09-6.8L181.09-6.8Q181.09-10.65 183.16-12.68 185.24-14.7 189.14-15.45 193.04-16.2 199.34-16.2L199.34-16.2 199.34-17.5Q199.34-19.05 198.26-19.85 197.19-20.65 195.49-20.65L195.49-20.65Q193.94-20.65 192.81-20.1 191.69-19.55 191.69-18.35L191.69-18.35 191.69-18.15 181.89-18.15Q181.84-18.4 181.84-18.85L181.84-18.85Q181.84-22.6 185.41-24.8 188.99-27 195.64-27L195.64-27ZM199.34-11.5Q195.09-11.5 193.06-10.58 191.04-9.65 191.04-8.1L191.04-8.1Q191.04-5.6 194.44-5.6L194.44-5.6Q196.39-5.6 197.86-6.65 199.34-7.7 199.34-9.25L199.34-9.25 199.34-11.5ZM250.99-27Q255.49-27 257.74-24.43 259.99-21.85 259.99-17.1L259.99-17.1 259.99 0 250.03 0 250.03-15.9Q250.03-17.6 249.21-18.63 248.38-19.65 246.88-19.65L246.88-19.65Q245.13-19.65 244.03-18.45 242.94-17.25 242.94-15.5L242.94-15.5 242.94 0 232.99 0 232.99-15.9Q232.99-17.6 232.16-18.63 231.34-19.65 229.84-19.65L229.84-19.65Q228.09-19.65 226.99-18.45 225.88-17.25 225.88-15.5L225.88-15.5 225.88 0 215.94 0 215.94-26.4 224.09-26.4 224.74-22.45Q226.24-24.55 228.71-25.78 231.19-27 233.94-27L233.94-27Q239.88-27 241.94-22.45L241.94-22.45Q243.49-24.55 245.91-25.78 248.34-27 250.99-27L250.99-27Z" opacity="1" transform="matrix(1,0,0,1,0,0)" fill="#7a26c1" class="wordmark-text-0" data-fill-palette-color="primary" id="text-0"></path></svg></g></svg></g></svg></g></svg></g><g><svg viewBox="0 0 203.01070882001926 203.01070882001926" height="203.01070882001926" width="203.01070882001926"><g><svg viewBox="0 0 203.01070882001926 203.01070882001926" height="203.01070882001926" width="203.01070882001926"><g transform="matrix(1,0,0,1,53.655271456635205,53.798957408894694)"><svg viewBox="0 0 95.70016590674885 95.41279400222987" height="95.41279400222987" width="95.70016590674885"><g><svg xmlns:x="http://ns.adobe.com/Extensibility/1.0/" xmlns:i="http://ns.adobe.com/AdobeIllustrator/10.0/" xmlns:graph="http://ns.adobe.com/Graphs/1.0/" xmlns="http://www.w3.org/2000/svg" xmlns:xlink="http://www.w3.org/1999/xlink" version="1.1" x="0" y="0" viewBox="5.025 5.107 53.949000000000005 53.787" enable-background="new 0 0 64 64" xml:space="preserve" height="95.41279400222987" width="95.70016590674885" class="icon-cg-0" data-fill-palette-color="accent" id="cg-0"><g fill="#a437db" data-fill-palette-color="accent"><g fill="#a437db" data-fill-palette-color="accent"><path d="M20.089 31H31v-2.485c-1.248-0.421-2.154-1.588-2.154-2.976s0.906-2.555 2.154-2.976v-2.018c-3.315-0.093-6.525-0.453-9.516-1.047C20.657 22.979 20.159 26.889 20.089 31z" fill="#a437db" data-fill-palette-color="accent"></path><circle cx="32" cy="25.539" r="1.2" fill="#a437db" data-fill-palette-color="accent"></circle><path d="M31 18.544V5.107c-3.733 0.741-7.037 5.576-9.009 12.457C24.818 18.117 27.856 18.453 31 18.544z" fill="#a437db" data-fill-palette-color="accent"></path><path d="M21.553 44.795c3.001-0.525 6.186-0.822 9.447-0.855V33H20.089C20.161 37.226 20.684 41.24 21.553 44.795z" fill="#a437db" data-fill-palette-color="accent"></path><path d="M39.075 46.404c-0.532 0.99-1.566 1.673-2.768 1.673-1.374 0-2.534-0.89-2.965-2.12-0.113-0.003-0.229-0.004-0.343-0.007v12.943c3.659-0.728 6.907-5.383 8.891-12.046C40.972 46.676 40.032 46.528 39.075 46.404z" fill="#a437db" data-fill-palette-color="accent"></path><path d="M45.911 33c-0.069 4.462-0.601 8.637-1.5 12.334 3.369 0.785 6.414 1.875 8.905 3.207 3.366-4.327 5.444-9.698 5.658-15.541H45.911z" fill="#a437db" data-fill-palette-color="accent"></path><path d="M44.583 19.379c0.797 3.517 1.263 7.445 1.328 11.621h13.063c-0.201-5.499-2.055-10.582-5.078-14.769C51.246 17.574 48.077 18.643 44.583 19.379z" fill="#a437db" data-fill-palette-color="accent"></path><path d="M42.078 17.806C40.115 10.796 36.777 5.857 33 5.107v13.458C36.135 18.552 39.195 18.286 42.078 17.806z" fill="#a437db" data-fill-palette-color="accent"></path><path d="M44.096 17.442c3.197-0.668 6.091-1.63 8.541-2.826-3.742-4.434-8.882-7.647-14.734-8.958C40.521 8.154 42.682 12.27 44.096 17.442z" fill="#a437db" data-fill-palette-color="accent"></path><path d="M31 58.894V45.939c-3.084 0.032-6.092 0.306-8.925 0.79C24.056 53.455 27.32 58.162 31 58.894z" fill="#a437db" data-fill-palette-color="accent"></path><circle cx="12.993" cy="32" r="1.5" fill="#a437db" data-fill-palette-color="accent"></circle><path d="M20.055 47.107c-3.09 0.662-5.893 1.597-8.277 2.754 3.702 4.187 8.677 7.216 14.315 8.479C23.567 55.934 21.469 52.021 20.055 47.107z" fill="#a437db" data-fill-palette-color="accent"></path><path d="M9.623 31c0.435-1.458 1.772-2.531 3.37-2.531 1.656 0 3.04 1.15 3.419 2.691 0.151-0.093 0.32-0.16 0.51-0.16h1.166c0.067-4.304 0.562-8.343 1.405-11.941-3.402-0.826-6.459-1.971-8.971-3.396C7.25 19.954 5.236 25.25 5.025 31H9.623z" fill="#a437db" data-fill-palette-color="accent"></path><path d="M43.898 47.267c-1.413 4.839-3.493 8.692-5.99 11.074 5.528-1.239 10.423-4.173 14.101-8.232C49.722 48.936 46.952 47.973 43.898 47.267z" fill="#a437db" data-fill-palette-color="accent"></path><path d="M43.911 33H33v10.951c0.107 0.002 0.215 0.003 0.321 0.006 0.411-1.265 1.587-2.188 2.986-2.188 1.571 0 2.867 1.158 3.104 2.663 1.021 0.134 2.023 0.292 3.005 0.479C43.304 41.328 43.839 37.272 43.911 33z" fill="#a437db" data-fill-palette-color="accent"></path><path d="M42.572 19.746c-3.044 0.518-6.271 0.806-9.572 0.819v1.998c1.248 0.421 2.154 1.588 2.154 2.976S34.248 28.094 33 28.515V31h10.911C43.843 26.986 43.365 23.165 42.572 19.746z" fill="#a437db" data-fill-palette-color="accent"></path><circle cx="36.308" cy="44.923" r="1.2" fill="#a437db" data-fill-palette-color="accent"></circle><path d="M18.089 33h-1.166c-0.19 0-0.359-0.067-0.51-0.16-0.379 1.541-1.763 2.691-3.419 2.691-1.598 0-2.936-1.073-3.37-2.531H5.025c0.209 5.72 2.202 10.99 5.443 15.269 2.59-1.312 5.68-2.359 9.081-3.094C18.674 41.518 18.157 37.398 18.089 33z" fill="#a437db" data-fill-palette-color="accent"></path><path d="M19.991 17.126c1.415-5.024 3.54-9.022 6.105-11.468-5.616 1.258-10.575 4.267-14.272 8.426C14.131 15.349 16.9 16.377 19.991 17.126z" fill="#a437db" data-fill-palette-color="accent"></path></g></g></svg><g></g></g></svg></g><g id="text-0"><path d="M24.672 63.221l-2.142 5.302-9.919-1.75-0.033 0.083 8.348 5.639-2.138 5.293-16.418-2.55 2.026-5.015 9.201 1.718 0.037-0.092-7.821-5.136 1.918-4.748 9.238 1.626 0.038-0.092-7.858-5.044 1.94-4.803z" fill="#a437db" data-fill-palette-color="accent"></path><path d="M32.6 31.426c1.621-1.59 3.236-2.425 4.843-2.503 1.602-0.083 3.173 0.66 4.712 2.229v0l0.558 0.569-6.65 6.522c0.628 0.64 1.242 0.982 1.843 1.025 0.605 0.048 1.216-0.23 1.833-0.835v0c0.559-0.549 0.853-1.07 0.881-1.562 0.033-0.497-0.141-0.941-0.522-1.329v0l3.243-3.181c1.051 1.071 1.464 2.313 1.239 3.724-0.225 1.402-1.122 2.873-2.692 4.412v0c-1.645 1.614-3.295 2.483-4.949 2.608-1.659 0.12-3.251-0.597-4.776-2.152v0c-1.493-1.522-2.182-3.107-2.068-4.754 0.115-1.657 0.949-3.248 2.505-4.773zM34.828 33.427c-1.053 1.032-1.152 2.107-0.299 3.223v0l3.257-3.195c-0.451-0.46-0.937-0.695-1.458-0.704-0.531-0.01-1.031 0.215-1.5 0.676z" fill="#a437db" data-fill-palette-color="accent"></path><path d="M63.067 12.896c0.45-1.226 1.333-2.116 2.649-2.67v0c1.549-0.651 2.954-0.651 4.214 0.001 1.261 0.652 2.304 1.96 3.131 3.925v0c0.834 1.984 1.044 3.657 0.629 5.019-0.414 1.363-1.396 2.37-2.945 3.021v0c-1.592 0.669-3.068 0.551-4.427-0.354v0l0.306 1.784-3.508 1.474-6.604-15.713 4.316-1.814zM65.715 13.976c-0.637 0.268-1.018 0.698-1.144 1.291-0.128 0.587-0.04 1.242 0.264 1.964v0l0.301 0.716c0.304 0.722 0.709 1.24 1.215 1.554 0.506 0.313 1.078 0.336 1.714 0.068v0c1.243-0.522 1.555-1.518 0.938-2.988v0l-0.486-1.157c-0.625-1.488-1.559-1.97-2.802-1.448z" fill="#a437db" data-fill-palette-color="accent"></path><path d="M103.424 0c1.554 0.008 2.951 0.249 4.19 0.72 1.233 0.478 2.212 1.178 2.937 2.098 0.726 0.92 1.085 2.041 1.077 3.364v0l-4.96-0.028c0.004-0.677-0.292-1.224-0.888-1.638-0.595-0.422-1.315-0.635-2.158-0.64v0c-1.222-0.007-2.15 0.314-2.785 0.962-0.628 0.647-0.945 1.565-0.951 2.754v0l-0.009 1.504c-0.007 1.195 0.301 2.12 0.922 2.774 0.627 0.654 1.552 0.985 2.774 0.992v0c0.843 0.005 1.565-0.191 2.165-0.586 0.6-0.402 0.902-0.915 0.905-1.539v0l-3.676-0.02 0.018-3.288 8.636 0.048-0.049 9.025-2.68-0.015-0.509-1.607c-1.481 1.247-3.414 1.864-5.798 1.852v0c-2.683-0.015-4.695-0.726-6.035-2.135-1.34-1.409-2.003-3.501-1.988-6.277v0c0.015-2.743 0.79-4.821 2.325-6.234 1.542-1.406 3.721-2.102 6.537-2.086z" fill="#a437db" data-fill-palette-color="accent"></path><path d="M143.228 12.509c0.338 0.138 0.62 0.3 0.846 0.485 0.232 0.188 0.345 0.288 0.34 0.3v0l-1.483 3.634-1.393-0.569c-0.904-0.369-1.651-0.401-2.241-0.097-0.59 0.304-1.071 0.911-1.443 1.822v0l-2.089 5.118-4.326-1.765 4.691-11.492 3.541 1.445-0.421 1.851c0.535-0.556 1.156-0.891 1.862-1.004 0.704-0.107 1.409-0.017 2.116 0.272z" fill="#a437db" data-fill-palette-color="accent"></path><path d="M169.294 30.418c1.384 1.291 2.295 2.578 2.735 3.859 0.439 1.272 0.171 2.43-0.804 3.475v0l-3.309 3.547c-0.181 0.194-0.285 0.397-0.311 0.61-0.026 0.212 0.054 0.405 0.239 0.576v0l0.619 0.578-1.842 1.974c-0.057-0.007-0.18-0.055-0.371-0.142-0.191-0.078-0.444-0.215-0.762-0.411-0.308-0.196-0.634-0.455-0.978-0.777v0c-0.665-0.621-1.119-1.23-1.36-1.828-0.246-0.602-0.284-1.155-0.114-1.659v0c-0.754-0.068-1.496-0.247-2.224-0.536-0.729-0.299-1.456-0.786-2.18-1.461v0c-2.132-1.989-2.407-3.831-0.825-5.526v0c0.825-0.884 1.69-1.334 2.596-1.351 0.911-0.022 1.892 0.299 2.945 0.962 1.057 0.659 2.306 1.661 3.747 3.007v0l0.415-0.444c0.331-0.354 0.461-0.737 0.39-1.149-0.075-0.416-0.307-0.805-0.696-1.167v0c-0.359-0.335-0.727-0.56-1.101-0.673-0.375-0.114-0.692-0.032-0.95 0.244v0l-0.062 0.065-3.364-3.139c0.04-0.072 0.107-0.159 0.202-0.261v0c0.802-0.859 1.849-1.159 3.141-0.898 1.292 0.261 2.7 1.102 4.224 2.525zM165.587 36.932c-0.971-0.906-1.789-1.47-2.455-1.691-0.656-0.222-1.152-0.153-1.487 0.206v0c-0.535 0.573-0.414 1.222 0.363 1.947v0c0.447 0.417 0.953 0.662 1.52 0.737 0.562 0.07 1.008-0.072 1.338-0.427v0z" fill="#a437db" data-fill-palette-color="accent"></path><path d="M195.428 70.844c0.557 1.3 0.602 2.433 0.135 3.4-0.461 0.964-1.378 1.74-2.752 2.328v0l-7.389 3.168-1.841-4.294 6.876-2.948c0.488-0.209 0.828-0.496 1.019-0.859 0.197-0.366 0.203-0.766 0.017-1.2v0c-0.217-0.507-0.568-0.844-1.052-1.012-0.484-0.168-0.976-0.145-1.477 0.069v0l-6.701 2.874-1.841-4.294 6.875-2.948c0.488-0.209 0.828-0.496 1.019-0.86 0.197-0.366 0.203-0.766 0.017-1.199v0c-0.217-0.507-0.568-0.844-1.052-1.013-0.484-0.168-0.976-0.145-1.476 0.07v0l-6.702 2.873-1.841-4.294 11.408-4.891 1.507 3.516-1.581 1.014c0.79 0.174 1.515 0.543 2.175 1.105 0.66 0.562 1.159 1.237 1.497 2.025v0c0.735 1.715 0.574 3.15-0.485 4.305v0c0.795 0.186 1.52 0.555 2.176 1.104 0.652 0.544 1.142 1.198 1.469 1.961z" fill="#a437db" data-fill-palette-color="accent"></path><path d="M13.387 148.971l-2.29-5.564 8.756-5.997-0.038-0.092-10.437 1.916-2.29-5.564 14.24-10.183 2.169 5.269-8.188 5.494 0.038 0.092 9.671-1.892 2.056 4.993-8.154 5.576 0.038 0.092 9.633-1.984 2.074 5.039z" fill="#a437db" data-fill-palette-color="accent"></path><path d="M42.317 165.842c1.72 1.67 2.642 3.347 2.766 5.031 0.124 1.684-0.619 3.356-2.229 5.014v0l-0.59 0.608-7.041-6.835c-0.657 0.677-0.999 1.335-1.027 1.974-0.033 0.635 0.277 1.269 0.93 1.903v0c0.591 0.574 1.147 0.873 1.669 0.898 0.517 0.02 0.977-0.177 1.379-0.592v0l3.431 3.331c-1.101 1.134-2.395 1.604-3.882 1.41-1.487-0.203-3.06-1.11-4.718-2.719v0c-1.744-1.693-2.7-3.412-2.867-5.157-0.172-1.74 0.543-3.434 2.144-5.083v0c1.563-1.611 3.215-2.377 4.953-2.3 1.739 0.077 3.433 0.916 5.082 2.517zM40.267 168.24c-1.115-1.082-2.248-1.159-3.399-0.231v0l3.446 3.344c0.472-0.486 0.706-1.004 0.702-1.553-0.004-0.559-0.253-1.079-0.749-1.56z" fill="#a437db" data-fill-palette-color="accent"></path><path d="M67.244 184.029c1.253-0.57 2.575-0.565 3.966 0.017v0c1.63 0.681 2.665 1.736 3.104 3.165 0.439 1.429 0.226 3.179-0.639 5.25v0c-0.873 2.09-1.974 3.483-3.302 4.18-1.328 0.697-2.807 0.706-4.436 0.025v0c-1.679-0.702-2.682-1.902-3.009-3.6v0l-1.104 1.557-3.704-1.548 6.925-16.572 4.55 1.901zM68.38 186.815c-0.668-0.279-1.27-0.25-1.807 0.087-0.531 0.34-0.956 0.892-1.276 1.658v0l-0.315 0.754c-0.318 0.76-0.409 1.445-0.276 2.055 0.14 0.613 0.544 1.059 1.212 1.337v0c1.311 0.548 2.291 0.047 2.938-1.503v0l0.507-1.213c0.656-1.569 0.328-2.627-0.983-3.175z" fill="#a437db" data-fill-palette-color="accent"></path><path d="M103.416 185.364c1.634-0.009 3.103 0.231 4.408 0.722 1.311 0.484 2.351 1.209 3.12 2.174 0.776 0.959 1.168 2.132 1.176 3.519v0l-5.23 0.03c-0.004-0.711-0.319-1.283-0.946-1.718-0.633-0.435-1.395-0.649-2.285-0.644v0c-1.288 0.007-2.263 0.358-2.923 1.053-0.654 0.688-0.977 1.659-0.969 2.914v0l0.009 1.584c0.007 1.255 0.341 2.223 1.002 2.903 0.668 0.687 1.646 1.027 2.935 1.019v0c0.89-0.005 1.649-0.222 2.278-0.65 0.622-0.422 0.931-0.965 0.927-1.629v0l-3.865 0.022-0.02-3.467 9.095-0.052 0.054 9.513-2.829 0.017-0.548-1.681c-1.546 1.33-3.575 2.003-6.085 2.017v0c-2.822 0.016-4.948-0.712-6.378-2.185-1.43-1.466-2.153-3.66-2.169-6.582v0c-0.017-2.895 0.774-5.095 2.373-6.598 1.605-1.503 3.895-2.264 6.87-2.281z" fill="#a437db" data-fill-palette-color="accent"></path><path d="M138.193 181.564c0.351-0.142 0.678-0.228 0.981-0.258 0.312-0.026 0.47-0.033 0.476-0.02v0l1.555 3.841-1.468 0.594c-0.948 0.384-1.533 0.904-1.754 1.56-0.225 0.664-0.142 1.48 0.249 2.446v0l2.185 5.392-4.571 1.852-4.91-12.123 3.748-1.519 1.04 1.718c-0.01-0.82 0.212-1.53 0.664-2.128 0.452-0.599 1.054-1.05 1.805-1.355z" fill="#a437db" data-fill-palette-color="accent"></path><path d="M159.762 166.657c1.471-1.354 2.895-2.209 4.272-2.566 1.378-0.357 2.575 0.017 3.592 1.121v0l3.454 3.752c0.189 0.205 0.395 0.331 0.619 0.378 0.219 0.042 0.426-0.027 0.622-0.207v0l0.652-0.6 1.93 2.096c-0.012 0.056-0.069 0.18-0.17 0.373-0.102 0.193-0.265 0.447-0.49 0.762-0.234 0.315-0.532 0.638-0.893 0.972v0c-0.708 0.652-1.389 1.08-2.041 1.283-0.648 0.208-1.23 0.203-1.748-0.016v0c-0.126 0.784-0.374 1.55-0.743 2.296-0.369 0.746-0.937 1.472-1.705 2.179v0c-2.257 2.078-4.213 2.218-5.869 0.42v0c-0.864-0.938-1.269-1.883-1.215-2.835 0.049-0.957 0.464-1.962 1.245-3.015 0.777-1.058 1.93-2.291 3.46-3.699v0l-0.432-0.469c-0.351-0.381-0.743-0.548-1.178-0.5-0.444 0.047-0.871 0.26-1.281 0.638v0c-0.376 0.346-0.64 0.711-0.793 1.095-0.148 0.389-0.089 0.727 0.177 1.015v0l0.067 0.074-3.576 3.293c-0.064-0.05-0.147-0.131-0.251-0.243v0c-0.837-0.909-1.068-2.032-0.693-3.371 0.379-1.333 1.375-2.742 2.988-4.226zM166.313 171.065c-1.031 0.949-1.69 1.763-1.977 2.443-0.282 0.675-0.249 1.2 0.098 1.576v0c0.558 0.606 1.25 0.529 2.075-0.232v0c0.474-0.436 0.772-0.946 0.895-1.528 0.123-0.582 0.011-1.062-0.336-1.438v0z" fill="#a437db" data-fill-palette-color="accent"></path><path d="M183.071 130.594c0.594-1.357 1.43-2.205 2.507-2.545 1.077-0.34 2.333-0.196 3.769 0.433v0l7.765 3.401-1.978 4.516-7.218-3.161c-0.511-0.224-0.976-0.279-1.396-0.165-0.419 0.114-0.728 0.395-0.925 0.845v0c-0.232 0.529-0.242 1.04-0.029 1.532 0.218 0.494 0.592 0.858 1.122 1.089v0l7.035 3.082-1.978 4.516-7.218-3.161c-0.511-0.224-0.976-0.279-1.396-0.165-0.419 0.114-0.728 0.395-0.925 0.845v0c-0.232 0.529-0.242 1.04-0.029 1.532 0.218 0.494 0.592 0.858 1.122 1.089v0l7.035 3.081-1.978 4.517-11.981-5.247 1.622-3.705 1.917 0.491c-0.433-0.733-0.671-1.555-0.715-2.466-0.043-0.911 0.117-1.783 0.483-2.616v0c0.786-1.795 2.002-2.701 3.649-2.719v0c-0.425-0.752-0.663-1.574-0.715-2.466-0.049-0.899 0.103-1.749 0.455-2.553z" fill="#a437db" data-fill-palette-color="accent"></path><path d="M1.966 103.23c0-3.596 2.915-6.511 6.511-6.511 3.596 0 6.511 2.915 6.511 6.511 0 3.596-2.915 6.511-6.511 6.511-3.596 0-6.511-2.915-6.511-6.511z" fill="#a437db" data-fill-palette-color="accent"></path><path d="M188.022 103.23c0-3.596 2.915-6.511 6.511-6.511 3.596 0 6.511 2.915 6.511 6.511 0 3.596-2.915 6.511-6.511 6.511-3.596 0-6.511-2.915-6.511-6.511z" fill="#a437db" data-fill-palette-color="accent"></path></g><g id="text-1"></g></svg></g></svg></g></svg></g></svg></g></svg></g><defs></defs></svg><rect width="395.52" height="247.2" fill="none" stroke="none" visibility="hidden"></rect></g></svg></g></svg>