<svg xmlns="http://www.w3.org/2000/svg" version="1.1" xmlns:xlink="http://www.w3.org/1999/xlink" xmlns:svgjs="http://svgjs.dev/svgjs" width="2000" height="1500" viewBox="0 0 2000 1500"><rect width="2000" height="1500" fill="#ffffff"></rect><g transform="matrix(0.75,0,0,0.75,249.090909090909,551.808451607205)"><svg viewBox="0 0 396 105" data-background-color="#ffffff" preserveAspectRatio="xMidYMid meet" height="530" width="2000" xmlns="http://www.w3.org/2000/svg" xmlns:xlink="http://www.w3.org/1999/xlink"><g id="tight-bounds" transform="matrix(1,0,0,1,0.2400000000000091,-0.14751551888434733)"><svg viewBox="0 0 395.52 105.29503103776872" height="105.29503103776872" width="395.52"><g><svg viewBox="0 0 395.52 105.29503103776872" height="105.29503103776872" width="395.52"><g transform="matrix(1,0,0,1,0,65.07655340848343)"><svg viewBox="0 0 395.52 40.21847762928529" height="40.21847762928529" width="395.52"><g id="textblocktransform"><svg viewBox="0 0 395.52 40.21847762928529" height="40.21847762928529" width="395.52" id="textblock"><g><svg viewBox="0 0 395.52 40.21847762928529" height="40.21847762928529" width="395.52"><g transform="matrix(1,0,0,1,0,0)"><svg width="395.52" viewBox="3.7 -34.4 344.17 35" height="40.21847762928529" data-palette-color="#d2d6dc"><path d="M37.95 0L28.3 0 13.85-16.7 13.85 0 3.7 0 3.7-34.4 13.35-34.4 27.8-17.45 27.8-34.4 37.95-34.4 37.95 0ZM58.3-27Q65.25-27 69.22-23.48 73.2-19.95 73.2-13.2L73.2-13.2Q73.2-6.45 69.22-2.93 65.25 0.6 58.3 0.6L58.3 0.6Q51.35 0.6 47.4-2.9 43.45-6.4 43.45-13.2L43.45-13.2Q43.45-20 47.4-23.5 51.35-27 58.3-27L58.3-27ZM58.3-20.25Q53.4-20.25 53.4-14.6L53.4-14.6 53.4-11.75Q53.4-6.15 58.3-6.15L58.3-6.15Q63.25-6.15 63.25-11.75L63.25-11.75 63.25-14.6Q63.25-20.25 58.3-20.25L58.3-20.25ZM114.64-34.4Q117.84-34.4 120.34-32.93 122.84-31.45 124.24-28.88 125.64-26.3 125.64-23.1L125.64-23.1 125.64-22.45Q125.64-19.25 124.24-16.65 122.84-14.05 120.34-12.58 117.84-11.1 114.64-11.1L114.64-11.1 106.39-11.1 106.39 0 95.34 0 95.34-34.4 114.64-34.4ZM106.39-26.25L106.39-19.15 110.94-19.15Q112.69-19.15 113.57-20.05 114.44-20.95 114.44-22.5L114.44-22.5 114.44-22.9Q114.44-24.5 113.57-25.38 112.69-26.25 110.94-26.25L110.94-26.25 106.39-26.25ZM143.09-27Q150.04-27 154.02-23.48 157.99-19.95 157.99-13.2L157.99-13.2Q157.99-6.45 154.02-2.93 150.04 0.6 143.09 0.6L143.09 0.6Q136.14 0.6 132.19-2.9 128.24-6.4 128.24-13.2L128.24-13.2Q128.24-20 132.19-23.5 136.14-27 143.09-27L143.09-27ZM143.09-20.25Q138.19-20.25 138.19-14.6L138.19-14.6 138.19-11.75Q138.19-6.15 143.09-6.15L143.09-6.15Q148.04-6.15 148.04-11.75L148.04-11.75 148.04-14.6Q148.04-20.25 143.09-20.25L143.09-20.25ZM175.34-27Q180.64-27 184.31-24.93 187.99-22.85 187.99-18.5L187.99-18.5 178.74-18.5Q178.74-19.95 177.44-20.55L177.44-20.55Q176.54-21.05 175.19-21.05L175.19-21.05Q171.59-21.05 171.59-19.35L171.59-19.35Q171.59-18.4 172.84-18 174.09-17.6 176.94-17.15L176.94-17.15Q180.44-16.65 182.79-15.98 185.14-15.3 186.89-13.58 188.64-11.85 188.64-8.75L188.64-8.75Q188.64-3.7 184.86-1.55 181.09 0.6 174.99 0.6L174.99 0.6Q171.49 0.6 168.39-0.38 165.29-1.35 163.34-3.4 161.39-5.45 161.39-8.6L161.39-8.6 170.64-8.6 170.64-8.4Q170.69-6.7 172.06-6.03 173.44-5.35 174.99-5.35L174.99-5.35Q179.14-5.35 179.14-7.3L179.14-7.3Q179.14-8.3 177.84-8.75 176.54-9.2 173.59-9.7L173.59-9.7Q170.04-10.3 167.76-11 165.49-11.7 163.79-13.38 162.09-15.05 162.09-18.05L162.09-18.05Q162.09-22.9 165.76-24.95 169.44-27 175.34-27L175.34-27ZM205.34-26.4L210.94-26.4 210.94-19.65 205.34-19.65 205.34-9.6Q205.34-7.8 205.94-6.98 206.54-6.15 208.14-6.15L208.14-6.15 210.94-6.15 210.94-0.3Q209.74 0.1 207.84 0.35 205.94 0.6 204.54 0.6L204.54 0.6Q200.14 0.6 197.76-1 195.39-2.6 195.39-6.45L195.39-6.45 195.39-19.65 191.69-19.65 191.69-26.4 195.79-26.4 197.94-34.4 205.34-34.4 205.34-26.4ZM228.08-27Q233.38-27 237.06-24.93 240.73-22.85 240.73-18.5L240.73-18.5 231.48-18.5Q231.48-19.95 230.18-20.55L230.18-20.55Q229.28-21.05 227.93-21.05L227.93-21.05Q224.33-21.05 224.33-19.35L224.33-19.35Q224.33-18.4 225.58-18 226.83-17.6 229.68-17.15L229.68-17.15Q233.18-16.65 235.53-15.98 237.88-15.3 239.63-13.58 241.38-11.85 241.38-8.75L241.38-8.75Q241.38-3.7 237.61-1.55 233.83 0.6 227.73 0.6L227.73 0.6Q224.23 0.6 221.13-0.38 218.03-1.35 216.08-3.4 214.13-5.45 214.13-8.6L214.13-8.6 223.38-8.6 223.38-8.4Q223.43-6.7 224.81-6.03 226.18-5.35 227.73-5.35L227.73-5.35Q231.88-5.35 231.88-7.3L231.88-7.3Q231.88-8.3 230.58-8.75 229.28-9.2 226.33-9.7L226.33-9.7Q222.78-10.3 220.51-11 218.23-11.7 216.53-13.38 214.83-15.05 214.83-18.05L214.83-18.05Q214.83-22.9 218.51-24.95 222.18-27 228.08-27L228.08-27ZM284.78-13.35L284.78 0 273.73 0 273.73-13.35 260.08-34.4 272.78-34.4 279.38-22.95 279.58-22.95 286.18-34.4 298.23-34.4 284.78-13.35ZM310.58-27Q317.83-27 321.65-23.6 325.48-20.2 325.48-13.2L325.48-13.2 325.48-11.5 305.68-11.5Q305.68-8.65 306.95-7.2 308.23-5.75 310.98-5.75L310.98-5.75Q313.48-5.75 314.65-6.8 315.83-7.85 315.83-9.6L315.83-9.6 325.48-9.6Q325.48-4.8 321.83-2.1 318.18 0.6 311.18 0.6L311.18 0.6Q303.83 0.6 299.78-2.83 295.73-6.25 295.73-13.2L295.73-13.2Q295.73-20 299.68-23.5 303.63-27 310.58-27L310.58-27ZM310.98-20.65Q306.28-20.65 305.73-16.2L305.73-16.2 315.43-16.2Q315.43-18.25 314.25-19.45 313.08-20.65 310.98-20.65L310.98-20.65ZM342.27-26.4L347.87-26.4 347.87-19.65 342.27-19.65 342.27-9.6Q342.27-7.8 342.87-6.98 343.47-6.15 345.07-6.15L345.07-6.15 347.87-6.15 347.87-0.3Q346.67 0.1 344.77 0.35 342.87 0.6 341.47 0.6L341.47 0.6Q337.07 0.6 334.7-1 332.32-2.6 332.32-6.45L332.32-6.45 332.32-19.65 328.62-19.65 328.62-26.4 332.72-26.4 334.87-34.4 342.27-34.4 342.27-26.4Z" opacity="1" transform="matrix(1,0,0,1,0,0)" fill="#d2d6dc" class="wordmark-text-0" data-fill-palette-color="primary" id="text-0"></path></svg></g></svg></g></svg></g></svg></g><g transform="matrix(1,0,0,1,154.736772111081,0)"><svg viewBox="0 0 86.04645577783798 55.581936083672275" height="55.581936083672275" width="86.04645577783798"><g><svg xmlns="http://www.w3.org/2000/svg" xmlns:xlink="http://www.w3.org/1999/xlink" version="1.1" x="8" y="0" viewBox="2.3 12.100000000000001 95.40000000000002 75.70000000000002" enable-background="new 0 0 100 100" xml:space="preserve" height="55.581936083672275" width="70.04645577783798" class="icon-icon-0" data-fill-palette-color="accent" id="icon-0"><path d="M84.7 25.7c-0.5-2.2-1.3-4.4-2.4-6.5 3.2 1.2 5.8 3.5 7.4 6.5H84.7zM72.2 19.2c-3.2 1.2-5.9 3.5-7.6 6.5h5C70.2 23.4 71.1 21.2 72.2 19.2zM76.1 18.3c-1.5 2.3-2.7 4.8-3.4 7.4h9c-0.7-2.6-1.8-5.1-3.3-7.4-0.4 0-0.8-0.1-1.3-0.1C76.8 18.3 76.5 18.3 76.1 18.3zM15.4 66.2V72h61.8v-5-2.9V57c2.6 0 5.2-0.4 7.7-1.2v8.4 2.9 4.5c0 1 0.3 2 1 2.7l3.9 4.8c0.3 0.4 0.5 0.8 0.5 1.3v2.2c0 2.9-2.3 5.2-5.2 5.2H7.5c-2.9 0-5.2-2.3-5.2-5.2v-2.2c0-0.5 0.2-0.9 0.5-1.3l4-4.9c0.6-0.8 1-1.7 1-2.7v-5.7-1.7V32.6c0-4.2 3.4-7.7 7.7-7.7H54c-0.8 2.5-1.2 5.1-1.2 7.7H15.4c0 0 0 0 0 0v31.6V66.2zM38 80.3c0 1.5 1.2 2.7 2.7 2.7H52c1.5 0 2.7-1.2 2.7-2.7v-0.6H38V80.3zM68.8 32.8c0-1.4 0.1-2.8 0.3-4.2h-5.7c-0.4 1.3-0.6 2.6-0.6 4 0 1.4 0.2 2.7 0.6 3.9h5.6C68.9 35.3 68.8 34 68.8 32.8zM64.6 39.5c1.6 2.9 4.2 5.2 7.3 6.5-1.1-2.1-1.8-4.2-2.4-6.5H64.6zM71.7 32.8c0 1.3 0.1 2.5 0.3 3.8h10.3c0.2-1.4 0.3-2.7 0.3-4.1 0-1.3-0.1-2.5-0.3-3.8H72.1C71.8 30 71.7 31.4 71.7 32.8zM91.7 18.1c8 8 8 21 0 28.9-6.7 6.7-17 7.8-24.8 3.2l0 0c-3.1 2.3-6.4 2.7-8.7 2.4-0.8-0.1-0.9-1.2-0.2-1.5 2.1-1 3.4-3.1 4.2-4.8l-0.2-0.2c-7.1-8-6.8-20.3 0.9-28C70.7 10.1 83.7 10.1 91.7 18.1zM89.4 20.4c-3.3-3.3-7.6-5.1-12.2-5.1-4.6 0-8.9 1.8-12.2 5.1C61.8 23.7 60 28 60 32.6c0 4.6 1.8 8.9 5.1 12.2 3.3 3.3 7.6 5.1 12.2 5.1 4.6 0 8.9-1.8 12.2-5.1 3.3-3.3 5.1-7.6 5.1-12.2C94.5 28 92.7 23.7 89.4 20.4zM75.9 46.9c0.4 0 0.9 0.1 1.3 0.1 0.3 0 0.7 0 1 0 1.5-2.3 2.7-4.8 3.4-7.4h-9.1C73.3 42.1 74.4 44.6 75.9 46.9zM85.5 32.4c0 1.4-0.1 2.8-0.3 4.1H91c0.4-1.3 0.6-2.6 0.6-3.9 0-1.4-0.2-2.7-0.6-4h-5.7C85.4 29.9 85.5 31.1 85.5 32.4zM82.1 46.1c3.3-1.2 6-3.6 7.7-6.6h-5.1C84.1 41.8 83.2 44 82.1 46.1z" fill="#d2d6dc" data-fill-palette-color="accent"></path></svg></g></svg></g><g><rect width="154.736772111081" height="3.626943818077861" y="50.95499226559441" x="240.783227888919" fill="#d2d6dc" data-fill-palette-color="accent"></rect><rect width="154.736772111081" height="3.626943818077861" y="50.95499226559441" x="0" fill="#d2d6dc" data-fill-palette-color="accent"></rect><rect width="154.736772111081" height="3.626943818077861" y="43.70110462943869" x="240.783227888919" fill="#d2d6dc" data-fill-palette-color="accent"></rect><rect width="154.736772111081" height="3.626943818077861" y="43.70110462943869" x="0" fill="#d2d6dc" data-fill-palette-color="accent"></rect></g></svg></g><defs></defs></svg><rect width="395.52" height="105.29503103776872" fill="none" stroke="none" visibility="hidden"></rect></g></svg></g></svg>