<svg xmlns="http://www.w3.org/2000/svg" version="1.1" xmlns:xlink="http://www.w3.org/1999/xlink" xmlns:svgjs="http://svgjs.dev/svgjs" width="2000" height="1247" viewBox="0 0 2000 1247"><g transform="matrix(1,0,0,1,-1.2121212121212466,186.8721302907618)"><svg viewBox="0 0 396 247" data-background-color="#ffffff" preserveAspectRatio="xMidYMid meet" height="1247" width="2000" xmlns="http://www.w3.org/2000/svg" xmlns:xlink="http://www.w3.org/1999/xlink"><g id="tight-bounds" transform="matrix(1,0,0,1,0.2400000000000091,-0.09999999999999432)"><svg viewBox="0 0 395.52 247.2" height="247.2" width="395.52"><g><svg></svg></g><g><svg viewBox="0 0 395.52 247.2" height="247.2" width="395.52"><g transform="matrix(1,0,0,1,75.54432,82.82063437873212)"><svg viewBox="0 0 244.43135999999998 81.55873124253574" height="81.55873124253574" width="244.43135999999998"><g><svg viewBox="0 0 244.43135999999998 81.55873124253574" height="81.55873124253574" width="244.43135999999998"><g transform="matrix(1,0,0,1,0,50.40656788190918)"><svg viewBox="0 0 244.43135999999998 31.152163360626556" height="31.152163360626556" width="244.43135999999998"><g id="textblocktransform"><svg viewBox="0 0 244.43135999999998 31.152163360626556" height="31.152163360626556" width="244.43135999999998" id="textblock"><g><svg viewBox="0 0 244.43135999999998 31.152163360626556" height="31.152163360626556" width="244.43135999999998"><g transform="matrix(1,0,0,1,0,0)"><svg width="244.43135999999998" viewBox="0 -35.8 280.88 35.8" height="31.152163360626556" data-palette-color="#6936f5"><path d="M40.35-2.15L52.4-2.15 52.4 0 33.75 0 26.4-23.95 26-23.95 18.65 0 0 0 0-2.15 12.05-2.15 0.6-34.95 6.95-34.95 15.75-9.8 23.55-34.95 28.85-34.95 36.65-9.8 45.45-34.95 51.8-34.95 40.35-2.15ZM52.4-2.15L57.25-2.15 57.25-34.95 81.8-34.95 81.8-29.4 63.15-29.4 63.15-20.15 79.9-20.15 79.9-14.9 63.15-14.9 63.15-5.55 82.4-5.55 82.4-2.15 87.25-2.15 87.25 0 52.4 0 52.4-2.15ZM113.95-2.15L120.4-2.15 120.4 0 85.1 0 85.1-2.15 89.95-2.15 89.95-34.95 103.55-34.95Q107.1-34.95 109.67-34.1 112.25-33.25 113.5-31.8L113.5-31.8Q115.9-29.1 115.9-25.7L115.9-25.7Q115.9-21.6 113.3-19.6L113.3-19.6Q112.35-18.9 112-18.73 111.65-18.55 110.75-18.15L110.75-18.15Q114-17.45 115.92-15.23 117.85-13 117.85-9.7L117.85-9.7Q117.85-4.75 113.95-2.15L113.95-2.15ZM95.85-15L95.85-5.45 105.1-5.45Q108.35-5.45 110.07-6.48 111.8-7.5 111.8-10.35L111.8-10.35Q111.8-15 104.35-15L104.35-15 95.85-15ZM95.85-29.5L95.85-20.45 103.35-20.45Q109.75-20.45 109.75-24.8L109.75-24.8Q109.75-27.3 108.2-28.4 106.65-29.5 103.4-29.5L103.4-29.5 95.85-29.5ZM150.84-2.15L158.24-2.15 158.24 0 120.39 0 120.39-2.15 132.49-2.15Q128.14-4.35 125.57-8.6 122.99-12.85 122.99-18.2L122.99-18.2Q122.99-25.85 128.29-30.83 133.59-35.8 141.17-35.8 148.74-35.8 153.74-31.4L153.74-31.4 150.59-26.9Q148.54-28.65 146.47-29.33 144.39-30 141.64-30L141.64-30Q136.29-30 132.72-26.8 129.14-23.6 129.14-18.05 129.14-12.5 132.64-9.13 136.14-5.75 141.12-5.75 146.09-5.75 149.44-7.9L149.44-7.9 149.44-17.5 155.34-17.5 155.34-5.55Q153.49-3.5 150.84-2.15L150.84-2.15ZM191.04-2.15L195.89-2.15 195.89 0 185.09 0 176.74-11.75 168.99-11.75 168.99 0 158.24 0 158.24-2.15 163.09-2.15 163.09-34.95 176.09-34.95Q184.09-34.95 187.54-32.25 190.99-29.55 190.99-23.6L190.99-23.6Q190.99-14.95 183.44-12.7L183.44-12.7 191.04-2.15ZM176.34-17.1Q181.34-17.1 183.14-18.65 184.94-20.2 184.94-23.63 184.94-27.05 183.09-28.33 181.24-29.6 176.49-29.6L176.49-29.6 168.99-29.6 168.99-17.1 176.34-17.1ZM230.79-2.15L236.59-2.15 236.59 0 225.44 0 221.94-7.95 204.44-7.95 200.94 0 189.79 0 189.79-2.15 195.59-2.15 210.04-34.95 216.34-34.95 230.79-2.15ZM206.84-13.4L219.54-13.4 213.19-27.8 206.84-13.4ZM276.04-2.15L280.88-2.15 280.88 0 270.13 0 270.13-27.3 257.94-3.05 254.64-3.05 242.49-27.3 242.49 0 231.74 0 231.74-2.15 236.59-2.15 236.59-34.95 245.79-34.95 256.34-13 266.88-34.95 276.04-34.95 276.04-2.15Z" opacity="1" transform="matrix(1,0,0,1,0,0)" fill="#ffffff" class="wordmark-text-0" data-fill-palette-color="primary" id="text-0"></path></svg></g></svg></g></svg></g></svg></g><g transform="matrix(1,0,0,1,100.62470094838105,0)"><svg viewBox="0 0 43.181958103237875 43.052289764385904" height="43.052289764385904" width="43.181958103237875"><g><svg xmlns:x="http://ns.adobe.com/Extensibility/1.0/" xmlns:i="http://ns.adobe.com/AdobeIllustrator/10.0/" xmlns:graph="http://ns.adobe.com/Graphs/1.0/" xmlns="http://www.w3.org/2000/svg" xmlns:xlink="http://www.w3.org/1999/xlink" version="1.1" x="0" y="0" viewBox="5.025 5.107 53.949000000000005 53.787" enable-background="new 0 0 64 64" xml:space="preserve" height="43.052289764385904" width="43.181958103237875" class="icon-icon-0" data-fill-palette-color="accent" id="icon-0"><g fill="#bb84e8" data-fill-palette-color="accent"><g fill="#bb84e8" data-fill-palette-color="accent"><path d="M20.089 31H31v-2.485c-1.248-0.421-2.154-1.588-2.154-2.976s0.906-2.555 2.154-2.976v-2.018c-3.315-0.093-6.525-0.453-9.516-1.047C20.657 22.979 20.159 26.889 20.089 31z" fill="#ffffff" data-fill-palette-color="accent"></path><circle cx="32" cy="25.539" r="1.2" fill="#ffffff" data-fill-palette-color="accent"></circle><path d="M31 18.544V5.107c-3.733 0.741-7.037 5.576-9.009 12.457C24.818 18.117 27.856 18.453 31 18.544z" fill="#ffffff" data-fill-palette-color="accent"></path><path d="M21.553 44.795c3.001-0.525 6.186-0.822 9.447-0.855V33H20.089C20.161 37.226 20.684 41.24 21.553 44.795z" fill="#ffffff" data-fill-palette-color="accent"></path><path d="M39.075 46.404c-0.532 0.99-1.566 1.673-2.768 1.673-1.374 0-2.534-0.89-2.965-2.12-0.113-0.003-0.229-0.004-0.343-0.007v12.943c3.659-0.728 6.907-5.383 8.891-12.046C40.972 46.676 40.032 46.528 39.075 46.404z" fill="#ffffff" data-fill-palette-color="accent"></path><path d="M45.911 33c-0.069 4.462-0.601 8.637-1.5 12.334 3.369 0.785 6.414 1.875 8.905 3.207 3.366-4.327 5.444-9.698 5.658-15.541H45.911z" fill="#ffffff" data-fill-palette-color="accent"></path><path d="M44.583 19.379c0.797 3.517 1.263 7.445 1.328 11.621h13.063c-0.201-5.499-2.055-10.582-5.078-14.769C51.246 17.574 48.077 18.643 44.583 19.379z" fill="#ffffff" data-fill-palette-color="accent"></path><path d="M42.078 17.806C40.115 10.796 36.777 5.857 33 5.107v13.458C36.135 18.552 39.195 18.286 42.078 17.806z" fill="#ffffff" data-fill-palette-color="accent"></path><path d="M44.096 17.442c3.197-0.668 6.091-1.63 8.541-2.826-3.742-4.434-8.882-7.647-14.734-8.958C40.521 8.154 42.682 12.27 44.096 17.442z" fill="#ffffff" data-fill-palette-color="accent"></path><path d="M31 58.894V45.939c-3.084 0.032-6.092 0.306-8.925 0.79C24.056 53.455 27.32 58.162 31 58.894z" fill="#ffffff" data-fill-palette-color="accent"></path><circle cx="12.993" cy="32" r="1.5" fill="#ffffff" data-fill-palette-color="accent"></circle><path d="M20.055 47.107c-3.09 0.662-5.893 1.597-8.277 2.754 3.702 4.187 8.677 7.216 14.315 8.479C23.567 55.934 21.469 52.021 20.055 47.107z" fill="#ffffff" data-fill-palette-color="accent"></path><path d="M9.623 31c0.435-1.458 1.772-2.531 3.37-2.531 1.656 0 3.04 1.15 3.419 2.691 0.151-0.093 0.32-0.16 0.51-0.16h1.166c0.067-4.304 0.562-8.343 1.405-11.941-3.402-0.826-6.459-1.971-8.971-3.396C7.25 19.954 5.236 25.25 5.025 31H9.623z" fill="#ffffff" data-fill-palette-color="accent"></path><path d="M43.898 47.267c-1.413 4.839-3.493 8.692-5.99 11.074 5.528-1.239 10.423-4.173 14.101-8.232C49.722 48.936 46.952 47.973 43.898 47.267z" fill="#ffffff" data-fill-palette-color="accent"></path><path d="M43.911 33H33v10.951c0.107 0.002 0.215 0.003 0.321 0.006 0.411-1.265 1.587-2.188 2.986-2.188 1.571 0 2.867 1.158 3.104 2.663 1.021 0.134 2.023 0.292 3.005 0.479C43.304 41.328 43.839 37.272 43.911 33z" fill="#ffffff" data-fill-palette-color="accent"></path><path d="M42.572 19.746c-3.044 0.518-6.271 0.806-9.572 0.819v1.998c1.248 0.421 2.154 1.588 2.154 2.976S34.248 28.094 33 28.515V31h10.911C43.843 26.986 43.365 23.165 42.572 19.746z" fill="#ffffff" data-fill-palette-color="accent"></path><circle cx="36.308" cy="44.923" r="1.2" fill="#ffffff" data-fill-palette-color="accent"></circle><path d="M18.089 33h-1.166c-0.19 0-0.359-0.067-0.51-0.16-0.379 1.541-1.763 2.691-3.419 2.691-1.598 0-2.936-1.073-3.37-2.531H5.025c0.209 5.72 2.202 10.99 5.443 15.269 2.59-1.312 5.68-2.359 9.081-3.094C18.674 41.518 18.157 37.398 18.089 33z" fill="#ffffff" data-fill-palette-color="accent"></path><path d="M19.991 17.126c1.415-5.024 3.54-9.022 6.105-11.468-5.616 1.258-10.575 4.267-14.272 8.426C14.131 15.349 16.9 16.377 19.991 17.126z" fill="#ffffff" data-fill-palette-color="accent"></path></g></g></svg><g></g></g></svg></g><g></g></svg></g></svg></g><g><path d="M85.422 75.466A122.216 122.216 0 0 1 310.098 75.466L307.289 75.466A119.406 119.406 0 0 0 88.231 75.466L85.422 75.466M85.422 171.734A122.216 122.216 0 0 0 310.098 171.734L307.289 171.734A119.406 119.406 0 0 1 88.231 171.734L85.422 171.734" fill="#ffffff" stroke="transparent" data-fill-palette-color="tertiary"></path></g></svg></g><defs></defs></svg><rect width="395.52" height="247.2" fill="none" stroke="none" visibility="hidden"></rect></g></svg></g></svg>